<svg width="1920" height="2048" viewBox="0 0 1920 2048" fill="none" xmlns="http://www.w3.org/2000/svg">
    <path d="M905 1280C895.667 1300 888.667 1320.67 884 1342C879.333 1363.33 875 1385.33 871 1408H256V1280H905ZM256 1664V1536H869C872.333 1558 877 1579.67 883 1601C889 1622.33 896.667 1643.33 906 1664H256ZM128 1920H1477L1604 2048H0V0H1115L1664 549V1117C1644.67 1099.67 1624.33 1084 1603 1070C1581.67 1056 1559.33 1043.67 1536 1033V640H1024V128H128V1920ZM1152 219V512H1445L1152 219ZM1176 1024C1103.33 1051.33 1041 1094 989 1152H256V1024H1176ZM256 512H896V640H256V512ZM1408 768V896H256V768H1408ZM1920 1984C1920 2001.33 1913.67 2016.33 1901 2029C1888.33 2041.67 1873.33 2048 1856 2048C1838.67 2048 1823.67 2041.67 1811 2029L1520 1739C1494 1756.33 1466 1769.33 1436 1778C1406 1786.67 1375.33 1791.33 1344 1792C1300 1792 1258.67 1783.67 1220 1767C1181.33 1750.33 1147.33 1727.67 1118 1699C1088.67 1670.33 1065.67 1636.33 1049 1597C1032.33 1557.67 1024 1516 1024 1472C1024 1428 1032.33 1386.67 1049 1348C1065.67 1309.33 1088.33 1275.67 1117 1247C1145.67 1218.33 1179.67 1195.33 1219 1178C1258.33 1160.67 1300 1152 1344 1152C1388 1152 1429.33 1160.33 1468 1177C1506.67 1193.67 1540.33 1216.67 1569 1246C1597.67 1275.33 1620.67 1309.33 1638 1348C1655.33 1386.67 1664 1428 1664 1472C1664 1503.33 1659.67 1534 1651 1564C1642.33 1594 1629 1622 1611 1648L1901 1939C1913.67 1951.67 1920 1966.67 1920 1984ZM1152 1472C1152 1498.67 1157 1523.67 1167 1547C1177 1570.33 1190.67 1590.67 1208 1608C1225.33 1625.33 1245.67 1639 1269 1649C1292.33 1659 1317.33 1664 1344 1664C1370.67 1664 1395.67 1659 1419 1649C1442.33 1639 1462.67 1625.33 1480 1608C1497.33 1590.67 1511 1570.33 1521 1547C1531 1523.67 1536 1498.67 1536 1472C1536 1445.33 1531 1420.33 1521 1397C1511 1373.67 1497.33 1353.33 1480 1336C1462.67 1318.67 1442.33 1305 1419 1295C1395.67 1285 1370.67 1280 1344 1280C1317.33 1280 1292.33 1285 1269 1295C1245.67 1305 1225.33 1318.67 1208 1336C1190.67 1353.33 1177 1373.67 1167 1397C1157 1420.33 1152 1445.33 1152 1472Z"
          fill="#F8F8F8"/>
</svg>
