<svg width="500" height="450" viewBox="0 0 500 450" fill="none" xmlns="http://www.w3.org/2000/svg">
    <path d="M50 450C36.25 450 24.475 445.1 14.675 435.3C4.87504 425.5 -0.0166242 413.733 4.24448e-05 400V50C4.24448e-05 36.25 4.90004 24.475 14.7 14.675C24.5 4.87504 36.2667 -0.0166242 50 4.24448e-05H450C463.75 4.24448e-05 475.525 4.90004 485.325 14.7C495.125 24.5 500.017 36.2667 500 50V400C500 413.75 495.1 425.525 485.3 435.325C475.5 445.125 463.733 450.017 450 450H50ZM75 350H200V300H75V350ZM313.75 300L437.5 176.25L401.875 140.625L313.75 229.375L278.125 193.75L243.125 229.375L313.75 300ZM75 250H200V200H75V250ZM75 150H200V100H75V150Z"
          fill="#F8F8F8"/>
</svg>
