<svg width="473" height="476" viewBox="0 0 473 476" fill="none" xmlns="http://www.w3.org/2000/svg">
    <path d="M94 456.5C119 219 231.5 144 444 94" stroke="#F8F8F8" stroke-width="37.5" stroke-linecap="round"
          stroke-linejoin="round"/>
    <path d="M341.725 39.25L453.875 91.5L401.575 203.65M344 450.075L397.025 397.025M397.025 397.025L450.075 344M397.025 397.025L344 344M397.025 397.025L450.075 450.075M69 119C82.2608 119 94.9785 113.732 104.355 104.355C113.732 94.9785 119 82.2608 119 69C119 55.7392 113.732 43.0215 104.355 33.6447C94.9785 24.2678 82.2608 19 69 19C55.7392 19 43.0215 24.2678 33.6447 33.6447C24.2678 43.0215 19 55.7392 19 69C19 82.2608 24.2678 94.9785 33.6447 104.355C43.0215 113.732 55.7392 119 69 119Z"
          stroke="#F8F8F8" stroke-width="37.5" stroke-linecap="round" stroke-linejoin="round"/>
</svg>
